<svg width="24" height="24" xmlns="http://www.w3.org/2000/svg">
 <title/>

 <g>
  <title>background</title>
  <rect fill="none" id="canvas_background" height="402" width="582" y="-1" x="-1"/>
 </g>
 <g>
  <title>Layer 1</title>
  <path fill="#eb4a4b" id="svg_1" d="m15.156,19.432l0.636,-1.084s-1.444,0.591 -3.86,0.591c-2.418,0 -3.84,-0.568 -3.84,-0.568l0.711,1.183l0.252,3.729c0,0.403 1.314,0.718 2.936,0.718c1.623,0 2.938,-0.314 2.938,-0.718l0.229,-3.835l0,-0.016l-0.002,0zm0.617,-7.046c-0.769,0.046 -1.153,0.903 -1.539,1.805c-0.143,0.33 -0.63,1.737 -0.948,1.563c-0.318,-0.173 0.413,-1.329 0.619,-2.017c-0.237,0.174 -1.105,0.849 -1.329,0.215c-0.358,0.314 -1.129,0.48 -1.042,-0.329c-0.191,0.345 -0.621,0.823 -1.139,0.614c-0.673,-0.255 0.395,-2.411 0.66,-2.307c0.266,0.121 -0.053,0.6 -0.136,0.794c-0.186,0.419 -0.398,0.958 -0.255,1.063c0.24,0.194 0.904,-0.703 0.919,-0.719c0.124,-0.165 0.479,-1.229 0.763,-1.107c0.285,0.134 -0.711,1.541 -0.34,1.826c0.076,0.06 0.383,-0.03 0.569,-0.239c0.12,-0.12 0.078,-0.42 0.479,-1.378c0.404,-0.959 0.764,-2.156 1.039,-2.066s0.049,0.703 -0.051,0.943c-0.464,1.078 -1.268,2.844 -0.89,2.71c0.374,-0.135 0.569,-0.135 0.943,-0.569c0.374,-0.434 0.345,-1.152 0.599,-1.137c0.24,0.014 0.21,0.254 0.15,0.418c0.24,-0.27 1.152,-0.868 1.363,-0.284c0.254,0.688 -1.304,1.692 -0.914,1.632c0.375,-0.045 0.988,-0.434 1.258,-0.793l0.719,-6.5s-0.734,0.6 -5.361,0.6s-5.284,-0.584 -5.284,-0.584l0.613,5.93c0.33,-0.928 1.108,-2.814 2.322,-2.74c0.554,0.03 1.303,1.109 0.658,1.139c-0.27,0.015 -0.3,-0.539 -0.614,-0.614c-0.239,-0.046 -0.554,0.135 -0.763,0.345c-0.404,0.404 -1.304,2.006 -1.184,2.801c0.15,1.018 1.407,-0.346 1.617,-0.75c0.149,-0.283 0.254,-1.138 0.568,-1.048c0.33,0.09 -0.029,0.974 -0.27,1.737c-0.27,0.869 -0.404,1.781 -0.732,1.676c-0.33,-0.104 0.209,-1.227 0.178,-1.422c-0.313,0.299 -0.883,1.02 -1.631,0.659l0.374,3.699s1.019,0.793 4.073,0.793s4.118,-0.793 4.118,-0.793l0.479,-4.283c-0.389,0.39 -1.617,1.063 -1.692,0.3c-0.059,-0.614 1.333,-1.498 0.974,-1.514l0.06,-0.069zm1.573,-11.717l-2.659,2.8l-0.486,1.901c1.881,0.12 3.189,0.386 3.189,0.694c0,0.419 -2.414,0.757 -5.391,0.757s-5.39,-0.343 -5.39,-0.763c0,-0.419 2.414,-0.764 5.391,-0.764c0.423,0 0.844,0 1.264,0.016l0.561,-2.276l2.825,-2.995c0.068,-0.09 0.28,-0.015 0.474,0.15c0.194,0.149 0.299,0.344 0.239,0.434l0,0.03l-0.017,0.016zm-5.407,17.512s-0.523,0 -0.61,-0.08c-0.022,-0.025 -0.036,-0.058 -0.036,-0.09c0,-0.058 0.039,-0.091 0.09,-0.11l0.044,0.075c-0.021,0.006 -0.029,0.015 -0.033,0.023c0,0.041 0.314,0.069 0.555,0.066c0.239,-0.003 0.531,-0.023 0.533,-0.064c0,-0.012 -0.023,-0.023 -0.061,-0.033l0.045,-0.072c0.063,0.02 0.117,0.058 0.117,0.121c0,0.11 -0.141,0.128 -0.23,0.141c-0.107,0.015 -0.412,0.023 -0.412,0.023l-0.002,0z"/>
 </g>
</svg>