<svg xmlns="http://www.w3.org/2000/svg" viewBox="0 0 80 80" width="80" height="80"><path fill="#b0c1d4" d="M32.5 52.5H47.5V67.5H32.5z"/><path fill="#66798f" d="M47,53v14H33V53H47 M48,52H32v16h16V52L48,52z"/><path fill="#dbf2ff" d="M2.5 12.5H77.5V59.5H2.5z"/><path fill="#66798f" d="M77,13v46H3V13H77 M78,12H2v48h76V12L78,12z"/><path fill="#b0c1d4" d="M20.5,71.5V70c0-1.93,1.57-3.5,3.5-3.5h32c1.93,0,3.5,1.57,3.5,3.5v1.5H20.5z"/><path fill="#66798f" d="M56,67c1.654,0,3,1.346,3,3v1H21v-1c0-1.654,1.346-3,3-3H56 M56,66H24c-2.209,0-4,1.791-4,4v2h40v-2 C60,67.791,58.209,66,56,66L56,66z"/><path fill="#8bb7f0" d="M42.5 20.5H69.5V33.5H42.5z"/><path fill="#4e7ab5" d="M69,21v12H43V21H69 M70,20H42v14h28V20L70,20z"/><g><path fill="#8bb7f0" d="M10.5 20.5H37.5V33.5H10.5z"/><path fill="#4e7ab5" d="M37,21v12H11V21H37 M38,20H10v14h28V20L38,20z"/></g><g><path fill="#8bb7f0" d="M42.5 38.5H69.5V51.5H42.5z"/><path fill="#4e7ab5" d="M69,39v12H43V39H69 M70,38H42v14h28V38L70,38z"/></g><g><path fill="#8bb7f0" d="M10.5 38.5H37.5V51.5H10.5z"/><path fill="#4e7ab5" d="M37,39v12H11V39H37 M38,38H10v14h28V38L38,38z"/></g></svg>