<svg xmlns="http://www.w3.org/2000/svg" width="80" height="80"><path fill="#b0c1d4" d="M32.5 52.5h15v15h-15z"/><path fill="#66798f" d="M47 53v14H33V53h14m1-1H32v16h16V52z"/><path fill="#dbf2ff" d="M2.5 12.5h75v47h-75z"/><path fill="#66798f" d="M77 13v46H3V13h74m1-1H2v48h76V12z"/><path fill="#b0c1d4" d="M20.5 71.5V70c0-1.93 1.57-3.5 3.5-3.5h32c1.93 0 3.5 1.57 3.5 3.5v1.5h-39z"/><path fill="#66798f" d="M56 67c1.654 0 3 1.346 3 3v1H21v-1c0-1.654 1.346-3 3-3h32m0-1H24a4 4 0 00-4 4v2h40v-2a4 4 0 00-4-4z"/><path fill="#8bb7f0" d="M42.5 20.5h27v13h-27z"/><path fill="#4e7ab5" d="M69 21v12H43V21h26m1-1H42v14h28V20z"/><path fill="#8bb7f0" d="M10.5 20.5h27v13h-27z"/><path fill="#4e7ab5" d="M37 21v12H11V21h26m1-1H10v14h28V20z"/><path fill="#8bb7f0" d="M42.5 38.5h27v13h-27z"/><path fill="#4e7ab5" d="M69 39v12H43V39h26m1-1H42v14h28V38z"/><path fill="#8bb7f0" d="M10.5 38.5h27v13h-27z"/><path fill="#4e7ab5" d="M37 39v12H11V39h26m1-1H10v14h28V38z"/></svg>